<mxfile host="Electron" modified="2024-03-29T08:05:26.190Z" agent="Mozilla/5.0 (Windows NT 10.0; Win64; x64) AppleWebKit/537.36 (KHTML, like Gecko) draw.io/23.1.5 Chrome/120.0.6099.109 Electron/28.1.0 Safari/537.36" etag="Sguw64TOLCzJEZSFeCiU" version="23.1.5" type="device">
  <diagram name="Страница — 1" id="JLULOAlkJ3aI0VZnD2LQ">
    <mxGraphModel dx="920" dy="602" grid="1" gridSize="10" guides="1" tooltips="1" connect="1" arrows="1" fold="1" page="1" pageScale="1" pageWidth="827" pageHeight="1169" math="0" shadow="0">
      <root>
        <mxCell id="0" />
        <mxCell id="1" parent="0" />
        <mxCell id="gBKuoCQjEU2EA3JGXyk2-4" style="edgeStyle=orthogonalEdgeStyle;rounded=0;orthogonalLoop=1;jettySize=auto;html=1;exitX=0.5;exitY=1;exitDx=0;exitDy=0;entryX=0.5;entryY=0;entryDx=0;entryDy=0;" parent="1" source="gBKuoCQjEU2EA3JGXyk2-1" target="gBKuoCQjEU2EA3JGXyk2-3" edge="1">
          <mxGeometry relative="1" as="geometry" />
        </mxCell>
        <mxCell id="gBKuoCQjEU2EA3JGXyk2-1" value="Начало" style="rounded=1;whiteSpace=wrap;html=1;arcSize=35;" parent="1" vertex="1">
          <mxGeometry x="300" y="60" width="90" height="50" as="geometry" />
        </mxCell>
        <mxCell id="gBKuoCQjEU2EA3JGXyk2-14" style="edgeStyle=orthogonalEdgeStyle;rounded=0;orthogonalLoop=1;jettySize=auto;html=1;exitX=0;exitY=0.5;exitDx=0;exitDy=0;entryX=0.5;entryY=0;entryDx=0;entryDy=0;" parent="1" source="gBKuoCQjEU2EA3JGXyk2-2" target="gBKuoCQjEU2EA3JGXyk2-10" edge="1">
          <mxGeometry relative="1" as="geometry" />
        </mxCell>
        <mxCell id="gBKuoCQjEU2EA3JGXyk2-19" style="edgeStyle=orthogonalEdgeStyle;rounded=0;orthogonalLoop=1;jettySize=auto;html=1;exitX=1;exitY=0.5;exitDx=0;exitDy=0;entryX=0.5;entryY=0;entryDx=0;entryDy=0;" parent="1" source="gBKuoCQjEU2EA3JGXyk2-2" target="gBKuoCQjEU2EA3JGXyk2-15" edge="1">
          <mxGeometry relative="1" as="geometry">
            <Array as="points">
              <mxPoint x="520" y="495" />
            </Array>
          </mxGeometry>
        </mxCell>
        <mxCell id="gBKuoCQjEU2EA3JGXyk2-2" value="а меньше 0?" style="rhombus;whiteSpace=wrap;html=1;" parent="1" vertex="1">
          <mxGeometry x="265" y="430" width="160" height="130" as="geometry" />
        </mxCell>
        <mxCell id="gBKuoCQjEU2EA3JGXyk2-17" style="edgeStyle=orthogonalEdgeStyle;rounded=0;orthogonalLoop=1;jettySize=auto;html=1;exitX=0.5;exitY=1;exitDx=0;exitDy=0;entryX=0.5;entryY=0;entryDx=0;entryDy=0;" parent="1" source="gBKuoCQjEU2EA3JGXyk2-3" target="gBKuoCQjEU2EA3JGXyk2-16" edge="1">
          <mxGeometry relative="1" as="geometry" />
        </mxCell>
        <mxCell id="gBKuoCQjEU2EA3JGXyk2-3" value="Ввод a, b, c" style="rounded=0;whiteSpace=wrap;html=1;" parent="1" vertex="1">
          <mxGeometry x="285" y="150" width="120" height="60" as="geometry" />
        </mxCell>
        <mxCell id="gBKuoCQjEU2EA3JGXyk2-5" value="Да" style="text;html=1;align=center;verticalAlign=middle;whiteSpace=wrap;rounded=0;" parent="1" vertex="1">
          <mxGeometry x="390" y="450" width="60" height="30" as="geometry" />
        </mxCell>
        <mxCell id="gBKuoCQjEU2EA3JGXyk2-6" value="Нет" style="text;html=1;align=center;verticalAlign=middle;whiteSpace=wrap;rounded=0;" parent="1" vertex="1">
          <mxGeometry x="240" y="450" width="60" height="30" as="geometry" />
        </mxCell>
        <mxCell id="gBKuoCQjEU2EA3JGXyk2-22" style="edgeStyle=orthogonalEdgeStyle;rounded=0;orthogonalLoop=1;jettySize=auto;html=1;exitX=1;exitY=0.5;exitDx=0;exitDy=0;entryX=0.5;entryY=0;entryDx=0;entryDy=0;" parent="1" source="gBKuoCQjEU2EA3JGXyk2-10" target="gBKuoCQjEU2EA3JGXyk2-21" edge="1">
          <mxGeometry relative="1" as="geometry" />
        </mxCell>
        <mxCell id="eSGe-3xfFbjhwfJbnRvL-24" style="edgeStyle=orthogonalEdgeStyle;rounded=0;orthogonalLoop=1;jettySize=auto;html=1;exitX=0;exitY=0.5;exitDx=0;exitDy=0;entryX=0.5;entryY=0;entryDx=0;entryDy=0;" edge="1" parent="1" source="gBKuoCQjEU2EA3JGXyk2-10" target="eSGe-3xfFbjhwfJbnRvL-12">
          <mxGeometry relative="1" as="geometry">
            <Array as="points">
              <mxPoint x="50" y="655" />
              <mxPoint x="50" y="780" />
              <mxPoint x="330" y="780" />
            </Array>
          </mxGeometry>
        </mxCell>
        <mxCell id="gBKuoCQjEU2EA3JGXyk2-10" value="а % 2 равно 0?" style="rhombus;whiteSpace=wrap;html=1;" parent="1" vertex="1">
          <mxGeometry x="70" y="590" width="160" height="130" as="geometry" />
        </mxCell>
        <mxCell id="gBKuoCQjEU2EA3JGXyk2-11" value="Да" style="text;html=1;align=center;verticalAlign=middle;whiteSpace=wrap;rounded=0;" parent="1" vertex="1">
          <mxGeometry x="190" y="620" width="60" height="30" as="geometry" />
        </mxCell>
        <mxCell id="gBKuoCQjEU2EA3JGXyk2-12" value="Нет" style="text;html=1;align=center;verticalAlign=middle;whiteSpace=wrap;rounded=0;" parent="1" vertex="1">
          <mxGeometry x="40" y="620" width="60" height="30" as="geometry" />
        </mxCell>
        <mxCell id="gBKuoCQjEU2EA3JGXyk2-20" style="edgeStyle=orthogonalEdgeStyle;rounded=0;orthogonalLoop=1;jettySize=auto;html=1;exitX=0.5;exitY=1;exitDx=0;exitDy=0;entryX=0.5;entryY=0;entryDx=0;entryDy=0;" parent="1" source="gBKuoCQjEU2EA3JGXyk2-15" target="gBKuoCQjEU2EA3JGXyk2-10" edge="1">
          <mxGeometry relative="1" as="geometry">
            <Array as="points">
              <mxPoint x="520" y="580" />
              <mxPoint x="150" y="580" />
            </Array>
          </mxGeometry>
        </mxCell>
        <mxCell id="gBKuoCQjEU2EA3JGXyk2-15" value="Прибавить к otr 1" style="rounded=0;whiteSpace=wrap;html=1;" parent="1" vertex="1">
          <mxGeometry x="460" y="510" width="120" height="60" as="geometry" />
        </mxCell>
        <mxCell id="eSGe-3xfFbjhwfJbnRvL-39" style="edgeStyle=orthogonalEdgeStyle;rounded=0;orthogonalLoop=1;jettySize=auto;html=1;exitX=0.5;exitY=1;exitDx=0;exitDy=0;entryX=0.5;entryY=0;entryDx=0;entryDy=0;" edge="1" parent="1" source="gBKuoCQjEU2EA3JGXyk2-16" target="eSGe-3xfFbjhwfJbnRvL-38">
          <mxGeometry relative="1" as="geometry" />
        </mxCell>
        <mxCell id="gBKuoCQjEU2EA3JGXyk2-16" value="Определение otr и full" style="rounded=0;whiteSpace=wrap;html=1;" parent="1" vertex="1">
          <mxGeometry x="285" y="250" width="120" height="60" as="geometry" />
        </mxCell>
        <mxCell id="eSGe-3xfFbjhwfJbnRvL-22" style="edgeStyle=orthogonalEdgeStyle;rounded=0;orthogonalLoop=1;jettySize=auto;html=1;exitX=0.5;exitY=1;exitDx=0;exitDy=0;entryX=0.5;entryY=0;entryDx=0;entryDy=0;" edge="1" parent="1" source="gBKuoCQjEU2EA3JGXyk2-21" target="eSGe-3xfFbjhwfJbnRvL-12">
          <mxGeometry relative="1" as="geometry" />
        </mxCell>
        <mxCell id="gBKuoCQjEU2EA3JGXyk2-21" value="Прибавить к full 1" style="rounded=0;whiteSpace=wrap;html=1;" parent="1" vertex="1">
          <mxGeometry x="270" y="700" width="120" height="60" as="geometry" />
        </mxCell>
        <mxCell id="eSGe-3xfFbjhwfJbnRvL-10" style="edgeStyle=orthogonalEdgeStyle;rounded=0;orthogonalLoop=1;jettySize=auto;html=1;exitX=0;exitY=0.5;exitDx=0;exitDy=0;entryX=0.5;entryY=0;entryDx=0;entryDy=0;" edge="1" parent="1" source="eSGe-3xfFbjhwfJbnRvL-12" target="eSGe-3xfFbjhwfJbnRvL-16">
          <mxGeometry relative="1" as="geometry" />
        </mxCell>
        <mxCell id="eSGe-3xfFbjhwfJbnRvL-11" style="edgeStyle=orthogonalEdgeStyle;rounded=0;orthogonalLoop=1;jettySize=auto;html=1;exitX=1;exitY=0.5;exitDx=0;exitDy=0;entryX=0.5;entryY=0;entryDx=0;entryDy=0;" edge="1" parent="1" source="eSGe-3xfFbjhwfJbnRvL-12" target="eSGe-3xfFbjhwfJbnRvL-20">
          <mxGeometry relative="1" as="geometry">
            <Array as="points">
              <mxPoint x="510" y="865" />
            </Array>
          </mxGeometry>
        </mxCell>
        <mxCell id="eSGe-3xfFbjhwfJbnRvL-12" value="b меньше 0?" style="rhombus;whiteSpace=wrap;html=1;" vertex="1" parent="1">
          <mxGeometry x="250" y="800" width="160" height="130" as="geometry" />
        </mxCell>
        <mxCell id="eSGe-3xfFbjhwfJbnRvL-13" value="Да" style="text;html=1;align=center;verticalAlign=middle;whiteSpace=wrap;rounded=0;" vertex="1" parent="1">
          <mxGeometry x="380" y="820" width="60" height="30" as="geometry" />
        </mxCell>
        <mxCell id="eSGe-3xfFbjhwfJbnRvL-14" value="Нет" style="text;html=1;align=center;verticalAlign=middle;whiteSpace=wrap;rounded=0;" vertex="1" parent="1">
          <mxGeometry x="230" y="820" width="60" height="30" as="geometry" />
        </mxCell>
        <mxCell id="eSGe-3xfFbjhwfJbnRvL-15" style="edgeStyle=orthogonalEdgeStyle;rounded=0;orthogonalLoop=1;jettySize=auto;html=1;exitX=1;exitY=0.5;exitDx=0;exitDy=0;entryX=0.5;entryY=0;entryDx=0;entryDy=0;" edge="1" parent="1" source="eSGe-3xfFbjhwfJbnRvL-16" target="eSGe-3xfFbjhwfJbnRvL-21">
          <mxGeometry relative="1" as="geometry" />
        </mxCell>
        <mxCell id="eSGe-3xfFbjhwfJbnRvL-16" value="b % 2 равно 0?" style="rhombus;whiteSpace=wrap;html=1;" vertex="1" parent="1">
          <mxGeometry x="60" y="960" width="160" height="130" as="geometry" />
        </mxCell>
        <mxCell id="eSGe-3xfFbjhwfJbnRvL-17" value="Да" style="text;html=1;align=center;verticalAlign=middle;whiteSpace=wrap;rounded=0;" vertex="1" parent="1">
          <mxGeometry x="180" y="990" width="60" height="30" as="geometry" />
        </mxCell>
        <mxCell id="eSGe-3xfFbjhwfJbnRvL-18" value="Нет" style="text;html=1;align=center;verticalAlign=middle;whiteSpace=wrap;rounded=0;" vertex="1" parent="1">
          <mxGeometry x="30" y="990" width="60" height="30" as="geometry" />
        </mxCell>
        <mxCell id="eSGe-3xfFbjhwfJbnRvL-19" style="edgeStyle=orthogonalEdgeStyle;rounded=0;orthogonalLoop=1;jettySize=auto;html=1;exitX=0.5;exitY=1;exitDx=0;exitDy=0;entryX=0.5;entryY=0;entryDx=0;entryDy=0;" edge="1" parent="1" source="eSGe-3xfFbjhwfJbnRvL-20" target="eSGe-3xfFbjhwfJbnRvL-16">
          <mxGeometry relative="1" as="geometry">
            <Array as="points">
              <mxPoint x="510" y="950" />
              <mxPoint x="140" y="950" />
            </Array>
          </mxGeometry>
        </mxCell>
        <mxCell id="eSGe-3xfFbjhwfJbnRvL-20" value="Прибавить к otr 1" style="rounded=0;whiteSpace=wrap;html=1;" vertex="1" parent="1">
          <mxGeometry x="450" y="880" width="120" height="60" as="geometry" />
        </mxCell>
        <mxCell id="eSGe-3xfFbjhwfJbnRvL-37" style="edgeStyle=orthogonalEdgeStyle;rounded=0;orthogonalLoop=1;jettySize=auto;html=1;exitX=0.5;exitY=1;exitDx=0;exitDy=0;entryX=0.5;entryY=0;entryDx=0;entryDy=0;" edge="1" parent="1" source="eSGe-3xfFbjhwfJbnRvL-21" target="eSGe-3xfFbjhwfJbnRvL-27">
          <mxGeometry relative="1" as="geometry" />
        </mxCell>
        <mxCell id="eSGe-3xfFbjhwfJbnRvL-21" value="Прибавить к full 1" style="rounded=0;whiteSpace=wrap;html=1;" vertex="1" parent="1">
          <mxGeometry x="260" y="1070" width="120" height="60" as="geometry" />
        </mxCell>
        <mxCell id="eSGe-3xfFbjhwfJbnRvL-25" style="edgeStyle=orthogonalEdgeStyle;rounded=0;orthogonalLoop=1;jettySize=auto;html=1;exitX=0;exitY=0.5;exitDx=0;exitDy=0;entryX=0.5;entryY=0;entryDx=0;entryDy=0;" edge="1" parent="1" source="eSGe-3xfFbjhwfJbnRvL-27" target="eSGe-3xfFbjhwfJbnRvL-31">
          <mxGeometry relative="1" as="geometry" />
        </mxCell>
        <mxCell id="eSGe-3xfFbjhwfJbnRvL-26" style="edgeStyle=orthogonalEdgeStyle;rounded=0;orthogonalLoop=1;jettySize=auto;html=1;exitX=1;exitY=0.5;exitDx=0;exitDy=0;entryX=0.5;entryY=0;entryDx=0;entryDy=0;" edge="1" parent="1" source="eSGe-3xfFbjhwfJbnRvL-27" target="eSGe-3xfFbjhwfJbnRvL-35">
          <mxGeometry relative="1" as="geometry">
            <Array as="points">
              <mxPoint x="500" y="1225" />
            </Array>
          </mxGeometry>
        </mxCell>
        <mxCell id="eSGe-3xfFbjhwfJbnRvL-27" value="c меньше 0?" style="rhombus;whiteSpace=wrap;html=1;" vertex="1" parent="1">
          <mxGeometry x="240" y="1160" width="160" height="130" as="geometry" />
        </mxCell>
        <mxCell id="eSGe-3xfFbjhwfJbnRvL-28" value="Да" style="text;html=1;align=center;verticalAlign=middle;whiteSpace=wrap;rounded=0;" vertex="1" parent="1">
          <mxGeometry x="370" y="1180" width="60" height="30" as="geometry" />
        </mxCell>
        <mxCell id="eSGe-3xfFbjhwfJbnRvL-29" value="Нет" style="text;html=1;align=center;verticalAlign=middle;whiteSpace=wrap;rounded=0;" vertex="1" parent="1">
          <mxGeometry x="220" y="1180" width="60" height="30" as="geometry" />
        </mxCell>
        <mxCell id="eSGe-3xfFbjhwfJbnRvL-30" style="edgeStyle=orthogonalEdgeStyle;rounded=0;orthogonalLoop=1;jettySize=auto;html=1;exitX=1;exitY=0.5;exitDx=0;exitDy=0;entryX=0.5;entryY=0;entryDx=0;entryDy=0;" edge="1" parent="1" source="eSGe-3xfFbjhwfJbnRvL-31" target="eSGe-3xfFbjhwfJbnRvL-36">
          <mxGeometry relative="1" as="geometry" />
        </mxCell>
        <mxCell id="eSGe-3xfFbjhwfJbnRvL-43" style="edgeStyle=orthogonalEdgeStyle;rounded=0;orthogonalLoop=1;jettySize=auto;html=1;exitX=0;exitY=0.5;exitDx=0;exitDy=0;entryX=0.5;entryY=0;entryDx=0;entryDy=0;" edge="1" parent="1" source="eSGe-3xfFbjhwfJbnRvL-31" target="eSGe-3xfFbjhwfJbnRvL-41">
          <mxGeometry relative="1" as="geometry">
            <Array as="points">
              <mxPoint x="30" y="1385" />
              <mxPoint x="30" y="1530" />
              <mxPoint x="190" y="1530" />
            </Array>
          </mxGeometry>
        </mxCell>
        <mxCell id="eSGe-3xfFbjhwfJbnRvL-31" value="c % 2 равно 0?" style="rhombus;whiteSpace=wrap;html=1;" vertex="1" parent="1">
          <mxGeometry x="50" y="1320" width="160" height="130" as="geometry" />
        </mxCell>
        <mxCell id="eSGe-3xfFbjhwfJbnRvL-32" value="Да" style="text;html=1;align=center;verticalAlign=middle;whiteSpace=wrap;rounded=0;" vertex="1" parent="1">
          <mxGeometry x="170" y="1350" width="60" height="30" as="geometry" />
        </mxCell>
        <mxCell id="eSGe-3xfFbjhwfJbnRvL-33" value="Нет" style="text;html=1;align=center;verticalAlign=middle;whiteSpace=wrap;rounded=0;" vertex="1" parent="1">
          <mxGeometry x="20" y="1350" width="60" height="30" as="geometry" />
        </mxCell>
        <mxCell id="eSGe-3xfFbjhwfJbnRvL-34" style="edgeStyle=orthogonalEdgeStyle;rounded=0;orthogonalLoop=1;jettySize=auto;html=1;exitX=0.5;exitY=1;exitDx=0;exitDy=0;entryX=0.5;entryY=0;entryDx=0;entryDy=0;" edge="1" parent="1" source="eSGe-3xfFbjhwfJbnRvL-35" target="eSGe-3xfFbjhwfJbnRvL-31">
          <mxGeometry relative="1" as="geometry">
            <Array as="points">
              <mxPoint x="500" y="1310" />
              <mxPoint x="130" y="1310" />
            </Array>
          </mxGeometry>
        </mxCell>
        <mxCell id="eSGe-3xfFbjhwfJbnRvL-35" value="Прибавить к otr 1" style="rounded=0;whiteSpace=wrap;html=1;" vertex="1" parent="1">
          <mxGeometry x="440" y="1240" width="120" height="60" as="geometry" />
        </mxCell>
        <mxCell id="eSGe-3xfFbjhwfJbnRvL-42" style="edgeStyle=orthogonalEdgeStyle;rounded=0;orthogonalLoop=1;jettySize=auto;html=1;exitX=0.5;exitY=1;exitDx=0;exitDy=0;entryX=0.5;entryY=0;entryDx=0;entryDy=0;" edge="1" parent="1" source="eSGe-3xfFbjhwfJbnRvL-36" target="eSGe-3xfFbjhwfJbnRvL-41">
          <mxGeometry relative="1" as="geometry">
            <Array as="points">
              <mxPoint x="310" y="1530" />
              <mxPoint x="190" y="1530" />
            </Array>
          </mxGeometry>
        </mxCell>
        <mxCell id="eSGe-3xfFbjhwfJbnRvL-36" value="Прибавить к full 1" style="rounded=0;whiteSpace=wrap;html=1;" vertex="1" parent="1">
          <mxGeometry x="250" y="1430" width="120" height="60" as="geometry" />
        </mxCell>
        <mxCell id="eSGe-3xfFbjhwfJbnRvL-40" style="edgeStyle=orthogonalEdgeStyle;rounded=0;orthogonalLoop=1;jettySize=auto;html=1;exitX=0.5;exitY=1;exitDx=0;exitDy=0;entryX=0.5;entryY=0;entryDx=0;entryDy=0;" edge="1" parent="1" source="eSGe-3xfFbjhwfJbnRvL-38" target="gBKuoCQjEU2EA3JGXyk2-2">
          <mxGeometry relative="1" as="geometry" />
        </mxCell>
        <mxCell id="eSGe-3xfFbjhwfJbnRvL-38" value="Переменные a,b,c перевод в Float" style="rounded=0;whiteSpace=wrap;html=1;" vertex="1" parent="1">
          <mxGeometry x="285" y="340" width="120" height="60" as="geometry" />
        </mxCell>
        <mxCell id="eSGe-3xfFbjhwfJbnRvL-46" style="edgeStyle=orthogonalEdgeStyle;rounded=0;orthogonalLoop=1;jettySize=auto;html=1;exitX=0.5;exitY=1;exitDx=0;exitDy=0;entryX=0.5;entryY=0;entryDx=0;entryDy=0;" edge="1" parent="1" source="eSGe-3xfFbjhwfJbnRvL-41" target="eSGe-3xfFbjhwfJbnRvL-45">
          <mxGeometry relative="1" as="geometry" />
        </mxCell>
        <mxCell id="eSGe-3xfFbjhwfJbnRvL-41" value="Вывод otr, full" style="rounded=0;whiteSpace=wrap;html=1;" vertex="1" parent="1">
          <mxGeometry x="130" y="1560" width="120" height="60" as="geometry" />
        </mxCell>
        <mxCell id="eSGe-3xfFbjhwfJbnRvL-45" value="Конец" style="rounded=1;whiteSpace=wrap;html=1;arcSize=35;" vertex="1" parent="1">
          <mxGeometry x="145" y="1660" width="90" height="50" as="geometry" />
        </mxCell>
      </root>
    </mxGraphModel>
  </diagram>
</mxfile>
